<?xml version="1.0" encoding="utf-8"?>
<!-- Generator: Adobe Illustrator 24.1.1, SVG Export Plug-In . SVG Version: 6.00 Build 0)  -->
<svg version="1.1" id="Layer_1" xmlns="http://www.w3.org/2000/svg" xmlns:xlink="http://www.w3.org/1999/xlink" x="0px" y="0px"
	 viewBox="0 0 488.4 282.8" style="enable-background:new 0 0 488.4 282.8;" xml:space="preserve">
<style type="text/css">
	.st0{fill:#FFFFFF;}
</style>
<g>
	<path class="st0" d="M54.6,27.3v211.3H38V27.3H54.6z M47.4,27.3h40.2c13.3,0,25.1,2.5,35.5,7.5c10.4,5,18.6,12.2,24.6,21.4
		c6,9.3,9.1,20.4,9.1,33.5c0,12.9-3,24.1-9.1,33.5c-6,9.5-14.2,16.7-24.6,21.6c-10.4,4.9-22.2,7.4-35.5,7.4H47.4v-15.7h40.2
		c15.5,0,28.1-4,37.7-12.1c9.7-8,14.5-19.6,14.5-34.7c0-15.3-4.8-26.9-14.5-34.9C115.6,46.9,103,43,87.5,43H47.4V27.3z"/>
	<path class="st0" d="M177.3,33c2.2-2.1,4.8-3.2,7.9-3.2c3.2,0,5.9,1.1,8,3.2c2.1,2.1,3.2,4.8,3.2,8c0,3-1.1,5.6-3.2,7.9
		c-2.1,2.2-4.8,3.3-8,3.3c-3,0-5.6-1.1-7.9-3.3c-2.2-2.2-3.3-4.8-3.3-7.9C174,37.7,175.1,35.1,177.3,33z M193,103.8v138.9h-15.7
		V103.8H193z"/>
	<path class="st0" d="M237,27.3v214h-15.7v-214H237z"/>
	<path class="st0" d="M361.3,216.8c3.1,4.6,7.3,8.1,12.7,10.4c5.3,2.3,11.2,3.5,17.7,3.5c7.8,0,15-1.8,21.6-5.4
		c6.5-3.6,11.8-9,15.9-16c4-7,6-15.7,6-26l3.6,13.3c0,10.9-2.6,19.8-7.9,26.9c-5.2,7-11.8,12.3-19.6,15.7
		c-7.8,3.4-15.8,5.1-23.9,5.1c-7.8,0-15.4-1.7-22.6-5c-7.2-3.3-13.1-8.2-17.5-14.6c-4.4-6.4-6.6-14.6-6.6-24.5
		c0-13.5,4.7-24.2,14-32c9.4-7.8,22.1-11.8,38.2-11.8c9.1,0,16.9,1.1,23.4,3.2c6.5,2.1,11.9,4.5,16.2,7.1c4.2,2.6,7.2,4.8,9.1,6.6
		v10c-6.8-4.8-14.1-8.4-21.9-10.7c-7.8-2.3-15.9-3.5-24.3-3.5c-7.9,0-14.6,1.1-20.4,3.3c-5.7,2.2-10.2,5.5-13.4,10
		c-3.2,4.4-4.8,10.2-4.8,17.2C356.6,206.5,358.2,212.2,361.3,216.8z M349.4,116c5.2-3.6,12-7.3,20.4-11c8.4-3.7,18.7-5.6,30.9-5.6
		c10.5,0,19.4,1.7,26.9,5.1c7.4,3.4,13.2,8.4,17.2,14.8c4,6.4,6,14.3,6,23.5v98.4h-15.7V145c0-4-0.6-7.9-1.8-11.6
		c-1.2-3.7-3.2-7.1-5.9-10.1c-2.7-3-6.4-5.4-11-7.2c-4.6-1.8-10.3-2.7-16.9-2.7c-6.8,0-13,0.8-18.4,2.4c-5.4,1.6-10.1,3.5-14,5.7
		c-3.9,2.2-7.2,4.3-9.8,6.3L349.4,116z"/>
	<polygon class="st0" points="328.4,240.1 275.4,240.1 241.6,175.4 294.5,175.4 	"/>
	<path class="st0" d="M339.1,104l-33.9,64.7h-53c11.3-21.5,22.6-43.1,33.9-64.7H339.1z"/>
</g>
</svg>
